<mxfile host="app.diagrams.net" agent="Mozilla/5.0 (Macintosh; Intel Mac OS X 10_15_7) AppleWebKit/605.1.15 (KHTML, like Gecko) Version/18.2 Safari/605.1.15" version="25.0.3">
  <diagram name="Page-1" id="zcw-Cnb_ciNUWG4lOdHk">
    <mxGraphModel dx="2190" dy="-313" grid="1" gridSize="10" guides="1" tooltips="1" connect="1" arrows="1" fold="1" page="1" pageScale="1" pageWidth="827" pageHeight="1169" math="0" shadow="0">
      <root>
        <mxCell id="0" />
        <mxCell id="1" parent="0" />
        <mxCell id="jaS_6ejKE6jILCxBxe4m-8" value="" style="rounded=0;whiteSpace=wrap;html=1;dashed=1;dashPattern=8 8;" vertex="1" parent="1">
          <mxGeometry x="70" y="1490" width="1020" height="190" as="geometry" />
        </mxCell>
        <mxCell id="CMElNXdr1ZD5l6xWRX4L-1" value="Ticket raised through phone (D1) and toll free customer care (D1)" style="rounded=0;whiteSpace=wrap;html=1;fillColor=#f8cecc;strokeColor=#b85450;" parent="1" vertex="1">
          <mxGeometry x="90" y="1610" width="120" height="60" as="geometry" />
        </mxCell>
        <mxCell id="CMElNXdr1ZD5l6xWRX4L-2" value="Start" style="rounded=1;whiteSpace=wrap;html=1;fillColor=#ffe6cc;strokeColor=#d79b00;" parent="1" vertex="1">
          <mxGeometry x="-70" y="1555" width="102.5" height="60" as="geometry" />
        </mxCell>
        <mxCell id="G15ThiUx4BXyu7yqYoc5-7" value="" style="endArrow=classic;html=1;rounded=0;exitX=0.5;exitY=1;exitDx=0;exitDy=0;entryX=0;entryY=0.5;entryDx=0;entryDy=0;" parent="1" source="CMElNXdr1ZD5l6xWRX4L-2" target="jaS_6ejKE6jILCxBxe4m-40" edge="1">
          <mxGeometry width="50" height="50" relative="1" as="geometry">
            <mxPoint x="380" y="1910" as="sourcePoint" />
            <mxPoint x="260" y="2071" as="targetPoint" />
            <Array as="points">
              <mxPoint x="-19" y="2026" />
            </Array>
          </mxGeometry>
        </mxCell>
        <mxCell id="G15ThiUx4BXyu7yqYoc5-22" value="In case of non customer&lt;div&gt;&lt;b&gt;Scenario 1&lt;/b&gt;: Customer might call from a different number, CS executive shall input the customer number or email or policy ID or Customer ID or claim number &amp;nbsp;so that info relevant to the input is shown &amp;amp; ticket shall be created for that user.&lt;/div&gt;&lt;div&gt;&lt;b&gt;Scenario 2&lt;/b&gt;: &amp;nbsp;Non customer wants to enquire about the product - Ticket to be created with limited information and moved to ticket queue (&lt;b&gt;Open point&lt;/b&gt;: Process to be agreed - &lt;span style=&quot;background-color: rgb(255, 64, 255);&quot;&gt;D4&lt;/span&gt;)&lt;/div&gt;&lt;div&gt;Scenario 3: Customer wants to purchase a policy and calls customer support. For this case, lead name, number &amp;amp; mail is captured and pushed as lead to CRM.&lt;/div&gt;" style="rounded=0;whiteSpace=wrap;html=1;" parent="1" vertex="1">
          <mxGeometry x="1040" y="2210" width="260" height="200" as="geometry" />
        </mxCell>
        <mxCell id="G15ThiUx4BXyu7yqYoc5-38" value="1. Email triggered for ticket resolution (&lt;span style=&quot;background-color: rgb(255, 64, 255);&quot;&gt;D6&lt;/span&gt;).&lt;div&gt;2. Happiness survey fetched through mail&lt;div&gt;&lt;div&gt;3. SMS/WA to be sent on successful ticket resolution. - &lt;span style=&quot;background-color: rgb(255, 251, 0);&quot;&gt;I7&lt;/span&gt;&lt;/div&gt;&lt;/div&gt;&lt;/div&gt;" style="rounded=0;whiteSpace=wrap;html=1;" parent="1" vertex="1">
          <mxGeometry x="633.5" y="2906" width="217" height="90" as="geometry" />
        </mxCell>
        <mxCell id="G15ThiUx4BXyu7yqYoc5-39" value="" style="endArrow=classic;html=1;rounded=0;exitX=0.5;exitY=1;exitDx=0;exitDy=0;entryX=0;entryY=0.5;entryDx=0;entryDy=0;" parent="1" target="G15ThiUx4BXyu7yqYoc5-38" edge="1">
          <mxGeometry width="50" height="50" relative="1" as="geometry">
            <mxPoint x="549" y="2550" as="sourcePoint" />
            <mxPoint x="670" y="2630" as="targetPoint" />
            <Array as="points">
              <mxPoint x="550" y="2950" />
            </Array>
          </mxGeometry>
        </mxCell>
        <mxCell id="G15ThiUx4BXyu7yqYoc5-44" value="1. &lt;b&gt;Scenario 1&lt;/b&gt;: Details available in CRM / Desk (&lt;span style=&quot;background-color: rgb(255, 64, 255);&quot;&gt;D5&lt;/span&gt;) - Assigned executive handles the ticket without integration.&lt;div&gt;&lt;b&gt;Scenario 2&lt;/b&gt;: Resolution specific to TCS BaNCS: Details to be sent to TCS BaNCS for review of the ticket (&lt;span style=&quot;background-color: rgb(255, 251, 0);&quot;&gt;I4&lt;/span&gt;)&lt;div&gt;2. Ticket status changed to In-progress)&lt;/div&gt;&lt;/div&gt;" style="rounded=0;whiteSpace=wrap;html=1;" parent="1" vertex="1">
          <mxGeometry x="638.25" y="2610" width="207.5" height="130" as="geometry" />
        </mxCell>
        <mxCell id="G15ThiUx4BXyu7yqYoc5-45" value="" style="endArrow=classic;html=1;rounded=0;exitX=0.5;exitY=1;exitDx=0;exitDy=0;entryX=0.5;entryY=0;entryDx=0;entryDy=0;" parent="1" target="G15ThiUx4BXyu7yqYoc5-44" edge="1">
          <mxGeometry width="50" height="50" relative="1" as="geometry">
            <mxPoint x="742.5" y="2580" as="sourcePoint" />
            <mxPoint x="810" y="2440" as="targetPoint" />
          </mxGeometry>
        </mxCell>
        <mxCell id="G15ThiUx4BXyu7yqYoc5-50" value="Date and time of Ticket creation is to be captured to check if the resolution TAT(14 days) is breached" style="shape=note;whiteSpace=wrap;html=1;backgroundOutline=1;darkOpacity=0.05;" parent="1" vertex="1">
          <mxGeometry x="1330" y="2260" width="148.6" height="100" as="geometry" />
        </mxCell>
        <mxCell id="G15ThiUx4BXyu7yqYoc5-52" value="" style="endArrow=classic;html=1;rounded=0;exitX=0;exitY=0.5;exitDx=0;exitDy=0;exitPerimeter=0;entryX=1;entryY=0.5;entryDx=0;entryDy=0;" parent="1" source="G15ThiUx4BXyu7yqYoc5-50" target="G15ThiUx4BXyu7yqYoc5-22" edge="1">
          <mxGeometry width="50" height="50" relative="1" as="geometry">
            <mxPoint x="860" y="2340" as="sourcePoint" />
            <mxPoint x="910" y="2290" as="targetPoint" />
          </mxGeometry>
        </mxCell>
        <mxCell id="G15ThiUx4BXyu7yqYoc5-55" value="1. TCS BaNCS shall respond back to the queries (Integration design to be discussed and agreed, Ticket status to be updated in Desk from TCS BaNCS)&lt;div&gt;2. Relevant Document (if any ) to be sent to the customer. -&amp;nbsp;&lt;span style=&quot;background-color: rgb(255, 251, 0);&quot;&gt;I6&lt;/span&gt;&lt;br&gt;&lt;div&gt;3. Ticket status changed to Resolved (Resolution code shall be defined by Zoho)&lt;/div&gt;&lt;/div&gt;" style="rounded=0;whiteSpace=wrap;html=1;" parent="1" vertex="1">
          <mxGeometry x="607" y="2763.75" width="270" height="121.25" as="geometry" />
        </mxCell>
        <mxCell id="G15ThiUx4BXyu7yqYoc5-56" value="" style="endArrow=classic;html=1;rounded=0;exitX=0.5;exitY=1;exitDx=0;exitDy=0;entryX=0.5;entryY=0;entryDx=0;entryDy=0;" parent="1" source="G15ThiUx4BXyu7yqYoc5-44" target="G15ThiUx4BXyu7yqYoc5-55" edge="1">
          <mxGeometry width="50" height="50" relative="1" as="geometry">
            <mxPoint x="730" y="2610" as="sourcePoint" />
            <mxPoint x="780" y="2560" as="targetPoint" />
          </mxGeometry>
        </mxCell>
        <mxCell id="G15ThiUx4BXyu7yqYoc5-58" value="End" style="rounded=1;whiteSpace=wrap;html=1;fillColor=#ffe6cc;strokeColor=#d79b00;" parent="1" vertex="1">
          <mxGeometry x="1010" y="2931" width="66" height="40" as="geometry" />
        </mxCell>
        <mxCell id="G15ThiUx4BXyu7yqYoc5-59" value="" style="endArrow=classic;html=1;rounded=0;entryX=0;entryY=0.5;entryDx=0;entryDy=0;exitX=1;exitY=0.5;exitDx=0;exitDy=0;" parent="1" source="G15ThiUx4BXyu7yqYoc5-38" target="G15ThiUx4BXyu7yqYoc5-58" edge="1">
          <mxGeometry width="50" height="50" relative="1" as="geometry">
            <mxPoint x="920" y="2900" as="sourcePoint" />
            <mxPoint x="510" y="2580" as="targetPoint" />
          </mxGeometry>
        </mxCell>
        <mxCell id="LatDOPX2VR_3BTuD7BCr-9" value="Ticket shall&amp;nbsp;&lt;div&gt;be closed&amp;nbsp;&lt;div&gt;if not reopened&amp;nbsp;&lt;/div&gt;&lt;div&gt;for 14 days&lt;/div&gt;&lt;/div&gt;" style="edgeLabel;html=1;align=center;verticalAlign=middle;resizable=0;points=[];" parent="G15ThiUx4BXyu7yqYoc5-59" vertex="1" connectable="0">
          <mxGeometry x="0.2299" y="1" relative="1" as="geometry">
            <mxPoint x="4" y="2" as="offset" />
          </mxGeometry>
        </mxCell>
        <mxCell id="G15ThiUx4BXyu7yqYoc5-62" value="" style="endArrow=classic;html=1;rounded=0;exitX=1;exitY=0.5;exitDx=0;exitDy=0;entryX=0;entryY=0.5;entryDx=0;entryDy=0;" parent="1" source="G15ThiUx4BXyu7yqYoc5-38" target="LatDOPX2VR_3BTuD7BCr-3" edge="1">
          <mxGeometry width="50" height="50" relative="1" as="geometry">
            <mxPoint x="530" y="2790" as="sourcePoint" />
            <mxPoint x="970" y="2705" as="targetPoint" />
            <Array as="points">
              <mxPoint x="900" y="2951" />
              <mxPoint x="900" y="2792" />
            </Array>
          </mxGeometry>
        </mxCell>
        <mxCell id="G15ThiUx4BXyu7yqYoc5-63" value="" style="endArrow=classic;html=1;rounded=0;exitX=0.5;exitY=1;exitDx=0;exitDy=0;entryX=0.5;entryY=0;entryDx=0;entryDy=0;" parent="1" source="G15ThiUx4BXyu7yqYoc5-55" target="G15ThiUx4BXyu7yqYoc5-38" edge="1">
          <mxGeometry width="50" height="50" relative="1" as="geometry">
            <mxPoint x="640" y="2700" as="sourcePoint" />
            <mxPoint x="690" y="2650" as="targetPoint" />
          </mxGeometry>
        </mxCell>
        <mxCell id="G15ThiUx4BXyu7yqYoc5-65" value="1. Ticket TAT time is breached - Ticket moved to Grievance&lt;div&gt;&amp;nbsp;or&lt;div&gt;2. Grievance ticket raised through customer&#39;s email to IRDAI&lt;/div&gt;&lt;div&gt;or&amp;nbsp;&lt;br&gt;&lt;div&gt;3. Grievance ticket directly raised with IRDAI portal - &lt;span style=&quot;background-color: rgb(255, 251, 0);&quot;&gt;I5&lt;/span&gt;&lt;/div&gt;&lt;/div&gt;&lt;/div&gt;" style="rounded=0;whiteSpace=wrap;html=1;" parent="1" vertex="1">
          <mxGeometry x="960" y="2422.5" width="220" height="115.5" as="geometry" />
        </mxCell>
        <mxCell id="G15ThiUx4BXyu7yqYoc5-67" value="Grievance ticket is moved/ created in Desk with Status as &#39;Open&#39;" style="rounded=0;whiteSpace=wrap;html=1;" parent="1" vertex="1">
          <mxGeometry x="1226" y="2449.5" width="120" height="60" as="geometry" />
        </mxCell>
        <mxCell id="G15ThiUx4BXyu7yqYoc5-68" value="" style="endArrow=classic;html=1;rounded=0;exitX=1;exitY=0.5;exitDx=0;exitDy=0;entryX=0;entryY=0.5;entryDx=0;entryDy=0;" parent="1" source="G15ThiUx4BXyu7yqYoc5-65" target="G15ThiUx4BXyu7yqYoc5-67" edge="1">
          <mxGeometry width="50" height="50" relative="1" as="geometry">
            <mxPoint x="1000" y="2510" as="sourcePoint" />
            <mxPoint x="1050" y="2460" as="targetPoint" />
          </mxGeometry>
        </mxCell>
        <mxCell id="G15ThiUx4BXyu7yqYoc5-69" value="Grievance ticket assigned to Grievance manager based on round robin method" style="rounded=0;whiteSpace=wrap;html=1;" parent="1" vertex="1">
          <mxGeometry x="1209" y="2540" width="154" height="70" as="geometry" />
        </mxCell>
        <mxCell id="G15ThiUx4BXyu7yqYoc5-70" value="" style="endArrow=classic;html=1;rounded=0;exitX=0.5;exitY=1;exitDx=0;exitDy=0;entryX=0.5;entryY=0;entryDx=0;entryDy=0;" parent="1" source="G15ThiUx4BXyu7yqYoc5-67" target="G15ThiUx4BXyu7yqYoc5-69" edge="1">
          <mxGeometry width="50" height="50" relative="1" as="geometry">
            <mxPoint x="1230" y="2680" as="sourcePoint" />
            <mxPoint x="1280" y="2630" as="targetPoint" />
          </mxGeometry>
        </mxCell>
        <mxCell id="G15ThiUx4BXyu7yqYoc5-71" value="1. Details to be sent to TCS BaNCS for review of the ticket&lt;div&gt;2. Ticket status changed to In-progress)&lt;/div&gt;" style="rounded=0;whiteSpace=wrap;html=1;" parent="1" vertex="1">
          <mxGeometry x="1206" y="2640" width="157" height="80" as="geometry" />
        </mxCell>
        <mxCell id="G15ThiUx4BXyu7yqYoc5-72" value="" style="endArrow=classic;html=1;rounded=0;exitX=0.5;exitY=1;exitDx=0;exitDy=0;" parent="1" source="G15ThiUx4BXyu7yqYoc5-69" target="G15ThiUx4BXyu7yqYoc5-71" edge="1">
          <mxGeometry width="50" height="50" relative="1" as="geometry">
            <mxPoint x="1100" y="2690" as="sourcePoint" />
            <mxPoint x="1150" y="2640" as="targetPoint" />
          </mxGeometry>
        </mxCell>
        <mxCell id="G15ThiUx4BXyu7yqYoc5-73" value="1. TCS BaNCS shall respond back to the queries (Integration design to be discussed and agreed)&lt;div&gt;2. Document (if any ) to be sent to the customer&lt;br&gt;&lt;div&gt;3. Ticket status changed to Resolved (Resolution code shall be defined by Zoho)&lt;/div&gt;&lt;/div&gt;" style="rounded=0;whiteSpace=wrap;html=1;" parent="1" vertex="1">
          <mxGeometry x="1149.5" y="2751.75" width="270" height="81.25" as="geometry" />
        </mxCell>
        <mxCell id="G15ThiUx4BXyu7yqYoc5-74" value="" style="endArrow=classic;html=1;rounded=0;exitX=0.5;exitY=1;exitDx=0;exitDy=0;entryX=0.5;entryY=0;entryDx=0;entryDy=0;" parent="1" source="G15ThiUx4BXyu7yqYoc5-71" target="G15ThiUx4BXyu7yqYoc5-73" edge="1">
          <mxGeometry width="50" height="50" relative="1" as="geometry">
            <mxPoint x="1000" y="2780" as="sourcePoint" />
            <mxPoint x="1050" y="2730" as="targetPoint" />
          </mxGeometry>
        </mxCell>
        <mxCell id="G15ThiUx4BXyu7yqYoc5-76" value="1. Email triggered for ticket Resolution&amp;nbsp;&lt;div&gt;2. Happiness survey sent through mail&amp;nbsp;&lt;div&gt;&lt;div&gt;3. SMS/WA to be sent for ticket resolution&lt;/div&gt;&lt;/div&gt;&lt;/div&gt;" style="rounded=0;whiteSpace=wrap;html=1;" parent="1" vertex="1">
          <mxGeometry x="1185.5" y="2870" width="199" height="90" as="geometry" />
        </mxCell>
        <mxCell id="G15ThiUx4BXyu7yqYoc5-77" value="" style="endArrow=classic;html=1;rounded=0;exitX=0.5;exitY=1;exitDx=0;exitDy=0;entryX=0.5;entryY=0;entryDx=0;entryDy=0;" parent="1" source="G15ThiUx4BXyu7yqYoc5-73" target="G15ThiUx4BXyu7yqYoc5-76" edge="1">
          <mxGeometry width="50" height="50" relative="1" as="geometry">
            <mxPoint x="1180" y="2840" as="sourcePoint" />
            <mxPoint x="1230" y="2790" as="targetPoint" />
          </mxGeometry>
        </mxCell>
        <mxCell id="G15ThiUx4BXyu7yqYoc5-78" value="Customer reopens the Grievance ticket in IRDAI or email to IRDAI" style="rounded=0;whiteSpace=wrap;html=1;" parent="1" vertex="1">
          <mxGeometry x="1440" y="2885" width="120" height="60" as="geometry" />
        </mxCell>
        <mxCell id="G15ThiUx4BXyu7yqYoc5-79" value="" style="endArrow=classic;html=1;rounded=0;exitX=1;exitY=0.5;exitDx=0;exitDy=0;entryX=0;entryY=0.5;entryDx=0;entryDy=0;" parent="1" source="G15ThiUx4BXyu7yqYoc5-76" target="G15ThiUx4BXyu7yqYoc5-78" edge="1">
          <mxGeometry width="50" height="50" relative="1" as="geometry">
            <mxPoint x="1180" y="2780" as="sourcePoint" />
            <mxPoint x="1230" y="2730" as="targetPoint" />
          </mxGeometry>
        </mxCell>
        <mxCell id="G15ThiUx4BXyu7yqYoc5-80" value="" style="endArrow=classic;html=1;rounded=0;exitX=0.5;exitY=0;exitDx=0;exitDy=0;entryX=1;entryY=0.5;entryDx=0;entryDy=0;" parent="1" source="G15ThiUx4BXyu7yqYoc5-78" target="G15ThiUx4BXyu7yqYoc5-69" edge="1">
          <mxGeometry width="50" height="50" relative="1" as="geometry">
            <mxPoint x="1180" y="2780" as="sourcePoint" />
            <mxPoint x="1230" y="2730" as="targetPoint" />
            <Array as="points">
              <mxPoint x="1500" y="2575" />
            </Array>
          </mxGeometry>
        </mxCell>
        <mxCell id="G15ThiUx4BXyu7yqYoc5-83" value="" style="endArrow=classic;html=1;rounded=0;exitX=0.5;exitY=1;exitDx=0;exitDy=0;entryX=0.5;entryY=1;entryDx=0;entryDy=0;" parent="1" source="G15ThiUx4BXyu7yqYoc5-76" target="G15ThiUx4BXyu7yqYoc5-58" edge="1">
          <mxGeometry width="50" height="50" relative="1" as="geometry">
            <mxPoint x="1180" y="2780" as="sourcePoint" />
            <mxPoint x="1230" y="2730" as="targetPoint" />
            <Array as="points">
              <mxPoint x="1285" y="3030" />
              <mxPoint x="1043" y="3030" />
            </Array>
          </mxGeometry>
        </mxCell>
        <mxCell id="LatDOPX2VR_3BTuD7BCr-7" value="Ticket shall be closed&amp;nbsp;&lt;div&gt;if not reopened for&amp;nbsp;&lt;/div&gt;&lt;div&gt;14 days&lt;/div&gt;" style="edgeLabel;html=1;align=center;verticalAlign=middle;resizable=0;points=[];" parent="G15ThiUx4BXyu7yqYoc5-83" vertex="1" connectable="0">
          <mxGeometry x="0.0366" y="-1" relative="1" as="geometry">
            <mxPoint x="-1" as="offset" />
          </mxGeometry>
        </mxCell>
        <mxCell id="G15ThiUx4BXyu7yqYoc5-96" value="" style="endArrow=classic;html=1;rounded=0;exitX=1;exitY=0.25;exitDx=0;exitDy=0;entryX=0;entryY=0.5;entryDx=0;entryDy=0;" parent="1" source="G15ThiUx4BXyu7yqYoc5-44" target="G15ThiUx4BXyu7yqYoc5-65" edge="1">
          <mxGeometry width="50" height="50" relative="1" as="geometry">
            <mxPoint x="840" y="2690" as="sourcePoint" />
            <mxPoint x="890" y="2640" as="targetPoint" />
            <Array as="points">
              <mxPoint x="870" y="2643" />
              <mxPoint x="870" y="2480" />
            </Array>
          </mxGeometry>
        </mxCell>
        <mxCell id="G15ThiUx4BXyu7yqYoc5-98" value="" style="rounded=0;whiteSpace=wrap;html=1;fillColor=#f8cecc;strokeColor=#b85450;" parent="1" vertex="1">
          <mxGeometry x="414" y="3134" width="36" height="30" as="geometry" />
        </mxCell>
        <mxCell id="G15ThiUx4BXyu7yqYoc5-99" value="Outside Zoho Desk" style="text;html=1;align=center;verticalAlign=middle;whiteSpace=wrap;rounded=0;" parent="1" vertex="1">
          <mxGeometry x="463.5" y="3134" width="96.5" height="30" as="geometry" />
        </mxCell>
        <mxCell id="G15ThiUx4BXyu7yqYoc5-100" value="" style="rounded=0;whiteSpace=wrap;html=1;fillColor=#d5e8d4;strokeColor=#82b366;" parent="1" vertex="1">
          <mxGeometry x="595" y="3134" width="36" height="30" as="geometry" />
        </mxCell>
        <mxCell id="G15ThiUx4BXyu7yqYoc5-101" value="Dialer" style="text;html=1;align=center;verticalAlign=middle;whiteSpace=wrap;rounded=0;" parent="1" vertex="1">
          <mxGeometry x="644.5" y="3134" width="96.5" height="30" as="geometry" />
        </mxCell>
        <mxCell id="G15ThiUx4BXyu7yqYoc5-102" value="" style="rounded=0;whiteSpace=wrap;html=1;" parent="1" vertex="1">
          <mxGeometry x="759" y="3134" width="36" height="30" as="geometry" />
        </mxCell>
        <mxCell id="G15ThiUx4BXyu7yqYoc5-103" value="Within Zoho Desk" style="text;html=1;align=center;verticalAlign=middle;whiteSpace=wrap;rounded=0;" parent="1" vertex="1">
          <mxGeometry x="808.5" y="3134" width="96.5" height="30" as="geometry" />
        </mxCell>
        <mxCell id="LatDOPX2VR_3BTuD7BCr-3" value="&lt;span style=&quot;white-space: nowrap; font-size: 11px; background-color: rgb(255, 255, 255);&quot;&gt;Customer&amp;nbsp;&lt;/span&gt;&lt;span style=&quot;font-size: 11px; white-space: nowrap; background-color: rgb(255, 255, 255);&quot;&gt;reopens&amp;nbsp;&lt;/span&gt;&lt;div&gt;&lt;span style=&quot;font-size: 11px; white-space: nowrap; background-color: rgb(255, 255, 255);&quot;&gt;the&amp;nbsp;&lt;/span&gt;&lt;span style=&quot;font-size: 11px; white-space: nowrap; background-color: rgb(255, 255, 255);&quot;&gt;ticket&amp;nbsp;&lt;/span&gt;&lt;span style=&quot;font-size: 11px; white-space: nowrap; background-color: rgb(255, 255, 255);&quot;&gt;through&amp;nbsp;&lt;/span&gt;&lt;/div&gt;&lt;div&gt;&lt;span style=&quot;font-size: 11px; white-space: nowrap; background-color: rgb(255, 255, 255);&quot;&gt;Galaxy&amp;nbsp;&lt;/span&gt;&lt;span style=&quot;white-space: nowrap; font-size: 11px; background-color: rgb(255, 255, 255);&quot;&gt;mail&amp;nbsp;&lt;/span&gt;&lt;span style=&quot;white-space: nowrap; font-size: 11px; background-color: rgb(255, 255, 255);&quot;&gt;or&amp;nbsp;&lt;/span&gt;&lt;/div&gt;&lt;div&gt;&lt;span style=&quot;white-space: nowrap; font-size: 11px; background-color: rgb(255, 255, 255);&quot;&gt;calls&amp;nbsp;&lt;/span&gt;&lt;span style=&quot;white-space: nowrap; font-size: 11px; background-color: rgb(255, 255, 255);&quot;&gt;galaxy within&amp;nbsp;&lt;/span&gt;&lt;/div&gt;&lt;div&gt;&lt;span style=&quot;white-space: nowrap; font-size: 11px; background-color: rgb(255, 255, 255);&quot;&gt;14 days from&amp;nbsp;&lt;/span&gt;&lt;/div&gt;&lt;div&gt;&lt;span style=&quot;white-space: nowrap; font-size: 11px; background-color: rgb(255, 255, 255);&quot;&gt;ticket resolved&amp;nbsp;&lt;/span&gt;&lt;/div&gt;&lt;div&gt;&lt;span style=&quot;white-space: nowrap; font-size: 11px; background-color: rgb(255, 255, 255);&quot;&gt;date&lt;/span&gt;&lt;/div&gt;" style="rounded=0;whiteSpace=wrap;html=1;" parent="1" vertex="1">
          <mxGeometry x="1020" y="2722.37" width="120" height="140" as="geometry" />
        </mxCell>
        <mxCell id="LatDOPX2VR_3BTuD7BCr-4" value="" style="endArrow=classic;html=1;rounded=0;exitX=0;exitY=0.5;exitDx=0;exitDy=0;entryX=0.5;entryY=1;entryDx=0;entryDy=0;" parent="1" source="G15ThiUx4BXyu7yqYoc5-76" target="LatDOPX2VR_3BTuD7BCr-3" edge="1">
          <mxGeometry width="50" height="50" relative="1" as="geometry">
            <mxPoint x="1050" y="2900" as="sourcePoint" />
            <mxPoint x="1100" y="2850" as="targetPoint" />
            <Array as="points">
              <mxPoint x="1080" y="2915" />
            </Array>
          </mxGeometry>
        </mxCell>
        <mxCell id="LatDOPX2VR_3BTuD7BCr-5" value="" style="endArrow=classic;html=1;rounded=0;exitX=0.5;exitY=0;exitDx=0;exitDy=0;entryX=1;entryY=0.5;entryDx=0;entryDy=0;" parent="1" source="LatDOPX2VR_3BTuD7BCr-3" target="G15ThiUx4BXyu7yqYoc5-44" edge="1">
          <mxGeometry width="50" height="50" relative="1" as="geometry">
            <mxPoint x="1050" y="2900" as="sourcePoint" />
            <mxPoint x="1010" y="2675" as="targetPoint" />
            <Array as="points">
              <mxPoint x="1080" y="2675" />
            </Array>
          </mxGeometry>
        </mxCell>
        <mxCell id="LatDOPX2VR_3BTuD7BCr-6" value="Ticket&lt;div&gt;assigned to&amp;nbsp;&lt;/div&gt;&lt;div&gt;same CS&lt;/div&gt;&lt;div&gt;executive&lt;/div&gt;" style="edgeLabel;html=1;align=center;verticalAlign=middle;resizable=0;points=[];" parent="LatDOPX2VR_3BTuD7BCr-5" vertex="1" connectable="0">
          <mxGeometry x="0.2613" y="1" relative="1" as="geometry">
            <mxPoint as="offset" />
          </mxGeometry>
        </mxCell>
        <mxCell id="LatDOPX2VR_3BTuD7BCr-10" value="Hospital support&lt;div&gt;Hospital enquires with Galaxy through mail or dedicated hospital care number&lt;/div&gt;" style="rounded=0;whiteSpace=wrap;html=1;fillColor=#f8cecc;strokeColor=#b85450;" parent="1" vertex="1">
          <mxGeometry x="334.25" y="2617.37" width="163.5" height="60" as="geometry" />
        </mxCell>
        <mxCell id="LatDOPX2VR_3BTuD7BCr-11" value="Galaxy&#39;s hospital care executive shall connect offline with hospital to gather the queries" style="rounded=0;whiteSpace=wrap;html=1;fillColor=#f8cecc;strokeColor=#b85450;" parent="1" vertex="1">
          <mxGeometry x="334.75" y="2712.37" width="147.5" height="60" as="geometry" />
        </mxCell>
        <mxCell id="LatDOPX2VR_3BTuD7BCr-12" value="Based on input, ticket is created in Zoho Desk with fields as agreed" style="rounded=0;whiteSpace=wrap;html=1;" parent="1" vertex="1">
          <mxGeometry x="348.5" y="2809.74" width="120" height="60" as="geometry" />
        </mxCell>
        <mxCell id="LatDOPX2VR_3BTuD7BCr-13" value="Galaxy executive shall check on the query and respond back through mail and close the ticket" style="rounded=0;whiteSpace=wrap;html=1;" parent="1" vertex="1">
          <mxGeometry x="329" y="2907.37" width="159" height="60" as="geometry" />
        </mxCell>
        <mxCell id="LatDOPX2VR_3BTuD7BCr-14" value="" style="endArrow=classic;html=1;rounded=0;exitX=0.455;exitY=0.998;exitDx=0;exitDy=0;exitPerimeter=0;entryX=0.5;entryY=0;entryDx=0;entryDy=0;" parent="1" source="LatDOPX2VR_3BTuD7BCr-10" target="LatDOPX2VR_3BTuD7BCr-11" edge="1">
          <mxGeometry width="50" height="50" relative="1" as="geometry">
            <mxPoint x="664.25" y="2937.37" as="sourcePoint" />
            <mxPoint x="714.25" y="2887.37" as="targetPoint" />
          </mxGeometry>
        </mxCell>
        <mxCell id="LatDOPX2VR_3BTuD7BCr-15" value="" style="endArrow=classic;html=1;rounded=0;exitX=0.5;exitY=1;exitDx=0;exitDy=0;entryX=0.5;entryY=0;entryDx=0;entryDy=0;" parent="1" source="LatDOPX2VR_3BTuD7BCr-11" target="LatDOPX2VR_3BTuD7BCr-12" edge="1">
          <mxGeometry width="50" height="50" relative="1" as="geometry">
            <mxPoint x="664.25" y="2937.37" as="sourcePoint" />
            <mxPoint x="714.25" y="2887.37" as="targetPoint" />
          </mxGeometry>
        </mxCell>
        <mxCell id="LatDOPX2VR_3BTuD7BCr-16" value="" style="endArrow=classic;html=1;rounded=0;exitX=0.5;exitY=1;exitDx=0;exitDy=0;entryX=0.5;entryY=0;entryDx=0;entryDy=0;" parent="1" source="LatDOPX2VR_3BTuD7BCr-12" target="LatDOPX2VR_3BTuD7BCr-13" edge="1">
          <mxGeometry width="50" height="50" relative="1" as="geometry">
            <mxPoint x="664.25" y="2937.37" as="sourcePoint" />
            <mxPoint x="714.25" y="2887.37" as="targetPoint" />
          </mxGeometry>
        </mxCell>
        <mxCell id="LatDOPX2VR_3BTuD7BCr-17" value="" style="endArrow=classic;html=1;rounded=0;exitX=0.5;exitY=1;exitDx=0;exitDy=0;entryX=0.5;entryY=1;entryDx=0;entryDy=0;" parent="1" source="LatDOPX2VR_3BTuD7BCr-13" target="G15ThiUx4BXyu7yqYoc5-58" edge="1">
          <mxGeometry width="50" height="50" relative="1" as="geometry">
            <mxPoint x="610" y="3090" as="sourcePoint" />
            <mxPoint x="660" y="3040" as="targetPoint" />
            <Array as="points">
              <mxPoint x="409" y="3010" />
              <mxPoint x="1043" y="3010" />
            </Array>
          </mxGeometry>
        </mxCell>
        <mxCell id="9aKA09WB6CI9SyymXwDa-2" value="Cashless claim support&lt;div&gt;Details captured and sent through dedicated mail ID&lt;/div&gt;" style="rounded=0;whiteSpace=wrap;html=1;fillColor=#f8cecc;strokeColor=#b85450;" parent="1" vertex="1">
          <mxGeometry x="140" y="2617.37" width="180" height="60" as="geometry" />
        </mxCell>
        <mxCell id="9aKA09WB6CI9SyymXwDa-3" value="Ticket created in Desk based on received details &amp;nbsp;manually." style="rounded=0;whiteSpace=wrap;html=1;" parent="1" vertex="1">
          <mxGeometry x="160" y="2712.37" width="140" height="57.63" as="geometry" />
        </mxCell>
        <mxCell id="9aKA09WB6CI9SyymXwDa-4" value="" style="endArrow=classic;html=1;rounded=0;exitX=0.5;exitY=1;exitDx=0;exitDy=0;" parent="1" source="9aKA09WB6CI9SyymXwDa-2" target="9aKA09WB6CI9SyymXwDa-3" edge="1">
          <mxGeometry width="50" height="50" relative="1" as="geometry">
            <mxPoint x="410" y="2810" as="sourcePoint" />
            <mxPoint x="460" y="2760" as="targetPoint" />
          </mxGeometry>
        </mxCell>
        <mxCell id="9aKA09WB6CI9SyymXwDa-5" value="Tickets assigned based on round robin method" style="rounded=0;whiteSpace=wrap;html=1;" parent="1" vertex="1">
          <mxGeometry x="160" y="2803.56" width="140" height="47.63" as="geometry" />
        </mxCell>
        <mxCell id="9aKA09WB6CI9SyymXwDa-6" value="" style="endArrow=classic;html=1;rounded=0;exitX=0.5;exitY=1;exitDx=0;exitDy=0;entryX=0.5;entryY=0;entryDx=0;entryDy=0;" parent="1" source="9aKA09WB6CI9SyymXwDa-3" target="9aKA09WB6CI9SyymXwDa-5" edge="1">
          <mxGeometry width="50" height="50" relative="1" as="geometry">
            <mxPoint x="390" y="2640" as="sourcePoint" />
            <mxPoint x="440" y="2590" as="targetPoint" />
          </mxGeometry>
        </mxCell>
        <mxCell id="9aKA09WB6CI9SyymXwDa-7" value="Tickets to check for tagging with existing CIN based on mail subject (&lt;span style=&quot;background-color: rgb(255, 64, 255);&quot;&gt;D7&lt;/span&gt;)" style="rounded=0;whiteSpace=wrap;html=1;" parent="1" vertex="1">
          <mxGeometry x="155" y="2885" width="150" height="60" as="geometry" />
        </mxCell>
        <mxCell id="9aKA09WB6CI9SyymXwDa-8" value="" style="endArrow=classic;html=1;rounded=0;exitX=0.5;exitY=1;exitDx=0;exitDy=0;entryX=0.5;entryY=0;entryDx=0;entryDy=0;" parent="1" source="9aKA09WB6CI9SyymXwDa-5" target="9aKA09WB6CI9SyymXwDa-7" edge="1">
          <mxGeometry width="50" height="50" relative="1" as="geometry">
            <mxPoint x="390" y="2830" as="sourcePoint" />
            <mxPoint x="440" y="2780" as="targetPoint" />
          </mxGeometry>
        </mxCell>
        <mxCell id="9aKA09WB6CI9SyymXwDa-9" value="Tickets pushed to TCS through API (&lt;span style=&quot;background-color: rgb(255, 251, 0);&quot;&gt;I8&lt;/span&gt;)" style="rounded=0;whiteSpace=wrap;html=1;" parent="1" vertex="1">
          <mxGeometry x="170" y="2980" width="120" height="60" as="geometry" />
        </mxCell>
        <mxCell id="9aKA09WB6CI9SyymXwDa-10" value="" style="endArrow=classic;html=1;rounded=0;exitX=0.5;exitY=1;exitDx=0;exitDy=0;" parent="1" source="9aKA09WB6CI9SyymXwDa-7" target="9aKA09WB6CI9SyymXwDa-9" edge="1">
          <mxGeometry width="50" height="50" relative="1" as="geometry">
            <mxPoint x="390" y="2830" as="sourcePoint" />
            <mxPoint x="440" y="2780" as="targetPoint" />
          </mxGeometry>
        </mxCell>
        <mxCell id="9aKA09WB6CI9SyymXwDa-11" value="Ticket closed" style="rounded=0;whiteSpace=wrap;html=1;" parent="1" vertex="1">
          <mxGeometry x="392" y="3060" width="76.5" height="40" as="geometry" />
        </mxCell>
        <mxCell id="9aKA09WB6CI9SyymXwDa-12" value="" style="endArrow=classic;html=1;rounded=0;exitX=0.5;exitY=1;exitDx=0;exitDy=0;entryX=0;entryY=0.5;entryDx=0;entryDy=0;" parent="1" source="9aKA09WB6CI9SyymXwDa-9" target="9aKA09WB6CI9SyymXwDa-11" edge="1">
          <mxGeometry width="50" height="50" relative="1" as="geometry">
            <mxPoint x="460" y="2930" as="sourcePoint" />
            <mxPoint x="510" y="2880" as="targetPoint" />
            <Array as="points">
              <mxPoint x="230" y="3080" />
            </Array>
          </mxGeometry>
        </mxCell>
        <mxCell id="9aKA09WB6CI9SyymXwDa-13" value="" style="endArrow=classic;html=1;rounded=0;exitX=1;exitY=0.5;exitDx=0;exitDy=0;entryX=0.5;entryY=1;entryDx=0;entryDy=0;" parent="1" source="9aKA09WB6CI9SyymXwDa-11" target="G15ThiUx4BXyu7yqYoc5-58" edge="1">
          <mxGeometry width="50" height="50" relative="1" as="geometry">
            <mxPoint x="490" y="3000" as="sourcePoint" />
            <mxPoint x="540" y="2950" as="targetPoint" />
            <Array as="points">
              <mxPoint x="1043" y="3080" />
            </Array>
          </mxGeometry>
        </mxCell>
        <mxCell id="jaS_6ejKE6jILCxBxe4m-1" value="Tickets raised through Grievance mail ID (D2)" style="rounded=0;whiteSpace=wrap;html=1;fillColor=#f8cecc;strokeColor=#b85450;" vertex="1" parent="1">
          <mxGeometry x="210" y="1520" width="120" height="60" as="geometry" />
        </mxCell>
        <mxCell id="jaS_6ejKE6jILCxBxe4m-2" value="Ticket raised through company website" style="rounded=0;whiteSpace=wrap;html=1;fillColor=#f8cecc;strokeColor=#b85450;" vertex="1" parent="1">
          <mxGeometry x="962" y="1520" width="120" height="60" as="geometry" />
        </mxCell>
        <mxCell id="jaS_6ejKE6jILCxBxe4m-3" value="Ticket raised through letter/courier and In-person walk-in" style="rounded=0;whiteSpace=wrap;html=1;fillColor=#f8cecc;strokeColor=#b85450;" vertex="1" parent="1">
          <mxGeometry x="455" y="1520" width="120" height="60" as="geometry" />
        </mxCell>
        <mxCell id="jaS_6ejKE6jILCxBxe4m-4" value="Ticket raised by Operating offices" style="rounded=0;whiteSpace=wrap;html=1;fillColor=#f8cecc;strokeColor=#b85450;" vertex="1" parent="1">
          <mxGeometry x="703.5" y="1520" width="120" height="60" as="geometry" />
        </mxCell>
        <mxCell id="jaS_6ejKE6jILCxBxe4m-5" value="Tickets raised through IGMS portal of IRDAI" style="rounded=0;whiteSpace=wrap;html=1;fillColor=#f8cecc;strokeColor=#b85450;" vertex="1" parent="1">
          <mxGeometry x="329" y="1610" width="120" height="60" as="geometry" />
        </mxCell>
        <mxCell id="jaS_6ejKE6jILCxBxe4m-6" value="Tickets raised through National consumer helpline or INGRAM Portal (D3)" style="rounded=0;whiteSpace=wrap;html=1;fillColor=#f8cecc;strokeColor=#b85450;" vertex="1" parent="1">
          <mxGeometry x="579" y="1610" width="120" height="60" as="geometry" />
        </mxCell>
        <mxCell id="jaS_6ejKE6jILCxBxe4m-7" value="Tickets raised through public grievance or CPGRAM portal (D4)" style="rounded=0;whiteSpace=wrap;html=1;fillColor=#f8cecc;strokeColor=#b85450;" vertex="1" parent="1">
          <mxGeometry x="831" y="1610" width="120" height="60" as="geometry" />
        </mxCell>
        <mxCell id="jaS_6ejKE6jILCxBxe4m-9" value="Channels for raising Grievance tickets" style="text;html=1;align=center;verticalAlign=middle;whiteSpace=wrap;rounded=0;fontSize=14;fontStyle=1" vertex="1" parent="1">
          <mxGeometry x="70.5" y="1490" width="312.5" height="30" as="geometry" />
        </mxCell>
        <mxCell id="jaS_6ejKE6jILCxBxe4m-11" value="" style="endArrow=classic;html=1;rounded=0;exitX=1;exitY=0.5;exitDx=0;exitDy=0;entryX=0;entryY=0.5;entryDx=0;entryDy=0;" edge="1" parent="1" source="CMElNXdr1ZD5l6xWRX4L-2" target="jaS_6ejKE6jILCxBxe4m-8">
          <mxGeometry width="50" height="50" relative="1" as="geometry">
            <mxPoint x="470" y="1680" as="sourcePoint" />
            <mxPoint x="520" y="1630" as="targetPoint" />
          </mxGeometry>
        </mxCell>
        <mxCell id="jaS_6ejKE6jILCxBxe4m-12" value="Tickets needs to be manually registered into Desk by support executives" style="rounded=0;whiteSpace=wrap;html=1;" vertex="1" parent="1">
          <mxGeometry x="90" y="1748" width="120" height="60" as="geometry" />
        </mxCell>
        <mxCell id="jaS_6ejKE6jILCxBxe4m-13" value="" style="endArrow=classic;html=1;rounded=0;exitX=0.5;exitY=1;exitDx=0;exitDy=0;entryX=0.5;entryY=0;entryDx=0;entryDy=0;" edge="1" parent="1" source="CMElNXdr1ZD5l6xWRX4L-1" target="jaS_6ejKE6jILCxBxe4m-12">
          <mxGeometry width="50" height="50" relative="1" as="geometry">
            <mxPoint x="470" y="1790" as="sourcePoint" />
            <mxPoint x="520" y="1740" as="targetPoint" />
          </mxGeometry>
        </mxCell>
        <mxCell id="jaS_6ejKE6jILCxBxe4m-14" value="Tickets registered in Desk on round robin allocation" style="rounded=0;whiteSpace=wrap;html=1;" vertex="1" parent="1">
          <mxGeometry x="217.38" y="1748" width="105.25" height="60" as="geometry" />
        </mxCell>
        <mxCell id="jaS_6ejKE6jILCxBxe4m-15" value="" style="endArrow=classic;html=1;rounded=0;exitX=0.5;exitY=1;exitDx=0;exitDy=0;entryX=0.5;entryY=0;entryDx=0;entryDy=0;" edge="1" parent="1" source="jaS_6ejKE6jILCxBxe4m-1" target="jaS_6ejKE6jILCxBxe4m-14">
          <mxGeometry width="50" height="50" relative="1" as="geometry">
            <mxPoint x="470" y="1790" as="sourcePoint" />
            <mxPoint x="520" y="1740" as="targetPoint" />
          </mxGeometry>
        </mxCell>
        <mxCell id="jaS_6ejKE6jILCxBxe4m-16" value="Tickets registered in Desk on round robin allocation" style="rounded=0;whiteSpace=wrap;html=1;" vertex="1" parent="1">
          <mxGeometry x="336.38" y="1748" width="105.25" height="60" as="geometry" />
        </mxCell>
        <mxCell id="jaS_6ejKE6jILCxBxe4m-17" value="" style="endArrow=classic;html=1;rounded=0;exitX=0.5;exitY=1;exitDx=0;exitDy=0;entryX=0.5;entryY=0;entryDx=0;entryDy=0;" edge="1" parent="1" source="jaS_6ejKE6jILCxBxe4m-5" target="jaS_6ejKE6jILCxBxe4m-16">
          <mxGeometry width="50" height="50" relative="1" as="geometry">
            <mxPoint x="470" y="1790" as="sourcePoint" />
            <mxPoint x="520" y="1740" as="targetPoint" />
          </mxGeometry>
        </mxCell>
        <mxCell id="jaS_6ejKE6jILCxBxe4m-18" value="Integration through CBOS (&lt;span style=&quot;background-color: rgb(255, 251, 0);&quot;&gt;I1&lt;/span&gt;)" style="edgeLabel;html=1;align=center;verticalAlign=middle;resizable=0;points=[];" vertex="1" connectable="0" parent="jaS_6ejKE6jILCxBxe4m-17">
          <mxGeometry x="-0.0229" y="1" relative="1" as="geometry">
            <mxPoint as="offset" />
          </mxGeometry>
        </mxCell>
        <mxCell id="jaS_6ejKE6jILCxBxe4m-19" value="Tickets needs to be manually registered into Desk by support executives" style="rounded=0;whiteSpace=wrap;html=1;" vertex="1" parent="1">
          <mxGeometry x="455" y="1748" width="120" height="60" as="geometry" />
        </mxCell>
        <mxCell id="jaS_6ejKE6jILCxBxe4m-20" value="" style="endArrow=classic;html=1;rounded=0;exitX=0.5;exitY=1;exitDx=0;exitDy=0;entryX=0.5;entryY=0;entryDx=0;entryDy=0;" edge="1" parent="1" source="jaS_6ejKE6jILCxBxe4m-3" target="jaS_6ejKE6jILCxBxe4m-19">
          <mxGeometry width="50" height="50" relative="1" as="geometry">
            <mxPoint x="470" y="1790" as="sourcePoint" />
            <mxPoint x="520" y="1740" as="targetPoint" />
          </mxGeometry>
        </mxCell>
        <mxCell id="jaS_6ejKE6jILCxBxe4m-21" value="Tickets needs to be manually registered into Desk by support executives" style="rounded=0;whiteSpace=wrap;html=1;" vertex="1" parent="1">
          <mxGeometry x="579.5" y="1748" width="120" height="60" as="geometry" />
        </mxCell>
        <mxCell id="jaS_6ejKE6jILCxBxe4m-22" value="Integration to this portal&lt;div&gt;&lt;span style=&quot;background-color: rgb(255, 255, 255);&quot;&gt;&amp;nbsp;is not considered&lt;/span&gt;&lt;/div&gt;" style="endArrow=classic;html=1;rounded=0;exitX=0.5;exitY=1;exitDx=0;exitDy=0;entryX=0.5;entryY=0;entryDx=0;entryDy=0;" edge="1" parent="1" source="jaS_6ejKE6jILCxBxe4m-6" target="jaS_6ejKE6jILCxBxe4m-21">
          <mxGeometry x="-0.011" width="50" height="50" relative="1" as="geometry">
            <mxPoint x="470" y="1790" as="sourcePoint" />
            <mxPoint x="520" y="1740" as="targetPoint" />
            <mxPoint as="offset" />
          </mxGeometry>
        </mxCell>
        <mxCell id="jaS_6ejKE6jILCxBxe4m-23" value="Tickets needs to be manually registered into Desk by support executives" style="rounded=0;whiteSpace=wrap;html=1;" vertex="1" parent="1">
          <mxGeometry x="703.5" y="1748" width="120" height="60" as="geometry" />
        </mxCell>
        <mxCell id="jaS_6ejKE6jILCxBxe4m-24" value="" style="endArrow=classic;html=1;rounded=0;exitX=0.5;exitY=1;exitDx=0;exitDy=0;entryX=0.5;entryY=0;entryDx=0;entryDy=0;" edge="1" parent="1" source="jaS_6ejKE6jILCxBxe4m-4" target="jaS_6ejKE6jILCxBxe4m-23">
          <mxGeometry width="50" height="50" relative="1" as="geometry">
            <mxPoint x="470" y="1790" as="sourcePoint" />
            <mxPoint x="520" y="1740" as="targetPoint" />
          </mxGeometry>
        </mxCell>
        <mxCell id="jaS_6ejKE6jILCxBxe4m-25" value="Tickets needs to be manually registered into Desk by support executives" style="rounded=0;whiteSpace=wrap;html=1;" vertex="1" parent="1">
          <mxGeometry x="831" y="1748" width="120" height="60" as="geometry" />
        </mxCell>
        <mxCell id="jaS_6ejKE6jILCxBxe4m-26" value="" style="endArrow=classic;html=1;rounded=0;exitX=0.5;exitY=1;exitDx=0;exitDy=0;entryX=0.5;entryY=0;entryDx=0;entryDy=0;" edge="1" parent="1" source="jaS_6ejKE6jILCxBxe4m-7" target="jaS_6ejKE6jILCxBxe4m-25">
          <mxGeometry width="50" height="50" relative="1" as="geometry">
            <mxPoint x="470" y="1790" as="sourcePoint" />
            <mxPoint x="520" y="1740" as="targetPoint" />
          </mxGeometry>
        </mxCell>
        <mxCell id="jaS_6ejKE6jILCxBxe4m-27" value="Integration to this portal&lt;div&gt;&lt;span style=&quot;background-color: rgb(255, 255, 255);&quot;&gt;&amp;nbsp;is not considered&lt;/span&gt;&lt;/div&gt;" style="edgeLabel;html=1;align=center;verticalAlign=middle;resizable=0;points=[];" vertex="1" connectable="0" parent="jaS_6ejKE6jILCxBxe4m-26">
          <mxGeometry x="-0.0435" y="3" relative="1" as="geometry">
            <mxPoint as="offset" />
          </mxGeometry>
        </mxCell>
        <mxCell id="jaS_6ejKE6jILCxBxe4m-28" value="Tickets registered in Desk on round robin allocation" style="rounded=0;whiteSpace=wrap;html=1;" vertex="1" parent="1">
          <mxGeometry x="969.37" y="1748" width="105.25" height="60" as="geometry" />
        </mxCell>
        <mxCell id="jaS_6ejKE6jILCxBxe4m-29" value="" style="endArrow=classic;html=1;rounded=0;exitX=0.5;exitY=1;exitDx=0;exitDy=0;entryX=0.5;entryY=0;entryDx=0;entryDy=0;" edge="1" parent="1" source="jaS_6ejKE6jILCxBxe4m-2" target="jaS_6ejKE6jILCxBxe4m-28">
          <mxGeometry width="50" height="50" relative="1" as="geometry">
            <mxPoint x="470" y="1790" as="sourcePoint" />
            <mxPoint x="520" y="1740" as="targetPoint" />
          </mxGeometry>
        </mxCell>
        <mxCell id="jaS_6ejKE6jILCxBxe4m-30" value="Integration with customer&lt;div&gt;&lt;span style=&quot;background-color: rgb(255, 255, 255);&quot;&gt;&amp;nbsp;Portal is not&amp;nbsp;&lt;/span&gt;&lt;/div&gt;&lt;div&gt;&lt;span style=&quot;background-color: rgb(255, 255, 255);&quot;&gt;discussed and &quot;Open&quot;&lt;/span&gt;&lt;/div&gt;" style="edgeLabel;html=1;align=center;verticalAlign=middle;resizable=0;points=[];" vertex="1" connectable="0" parent="jaS_6ejKE6jILCxBxe4m-29">
          <mxGeometry x="0.5651" y="1" relative="1" as="geometry">
            <mxPoint y="1" as="offset" />
          </mxGeometry>
        </mxCell>
        <mxCell id="jaS_6ejKE6jILCxBxe4m-45" style="edgeStyle=orthogonalEdgeStyle;rounded=0;orthogonalLoop=1;jettySize=auto;html=1;exitX=0.5;exitY=1;exitDx=0;exitDy=0;entryX=0.5;entryY=0;entryDx=0;entryDy=0;" edge="1" parent="1" source="jaS_6ejKE6jILCxBxe4m-31" target="jaS_6ejKE6jILCxBxe4m-41">
          <mxGeometry relative="1" as="geometry">
            <Array as="points">
              <mxPoint x="580" y="1960" />
              <mxPoint x="654" y="1960" />
            </Array>
          </mxGeometry>
        </mxCell>
        <mxCell id="jaS_6ejKE6jILCxBxe4m-31" value="Ticket status is set to &quot;Open&quot;" style="rounded=0;whiteSpace=wrap;html=1;" vertex="1" parent="1">
          <mxGeometry x="480" y="1892" width="200" height="40" as="geometry" />
        </mxCell>
        <mxCell id="jaS_6ejKE6jILCxBxe4m-32" value="" style="endArrow=classic;html=1;rounded=0;exitX=0.5;exitY=1;exitDx=0;exitDy=0;entryX=0;entryY=0.5;entryDx=0;entryDy=0;" edge="1" parent="1" source="jaS_6ejKE6jILCxBxe4m-12" target="jaS_6ejKE6jILCxBxe4m-31">
          <mxGeometry width="50" height="50" relative="1" as="geometry">
            <mxPoint x="540" y="2040" as="sourcePoint" />
            <mxPoint x="590" y="1990" as="targetPoint" />
            <Array as="points">
              <mxPoint x="150" y="1912" />
            </Array>
          </mxGeometry>
        </mxCell>
        <mxCell id="jaS_6ejKE6jILCxBxe4m-33" value="" style="endArrow=classic;html=1;rounded=0;exitX=0.5;exitY=1;exitDx=0;exitDy=0;entryX=0;entryY=0.5;entryDx=0;entryDy=0;" edge="1" parent="1" source="jaS_6ejKE6jILCxBxe4m-14" target="jaS_6ejKE6jILCxBxe4m-31">
          <mxGeometry width="50" height="50" relative="1" as="geometry">
            <mxPoint x="540" y="2040" as="sourcePoint" />
            <mxPoint x="470" y="1880" as="targetPoint" />
            <Array as="points">
              <mxPoint x="270" y="1912" />
            </Array>
          </mxGeometry>
        </mxCell>
        <mxCell id="jaS_6ejKE6jILCxBxe4m-34" value="" style="endArrow=classic;html=1;rounded=0;exitX=0.5;exitY=1;exitDx=0;exitDy=0;entryX=0;entryY=0.5;entryDx=0;entryDy=0;" edge="1" parent="1" source="jaS_6ejKE6jILCxBxe4m-16" target="jaS_6ejKE6jILCxBxe4m-31">
          <mxGeometry width="50" height="50" relative="1" as="geometry">
            <mxPoint x="540" y="2040" as="sourcePoint" />
            <mxPoint x="590" y="1990" as="targetPoint" />
            <Array as="points">
              <mxPoint x="389" y="1912" />
            </Array>
          </mxGeometry>
        </mxCell>
        <mxCell id="jaS_6ejKE6jILCxBxe4m-35" value="" style="endArrow=classic;html=1;rounded=0;exitX=0.5;exitY=1;exitDx=0;exitDy=0;entryX=0.5;entryY=0;entryDx=0;entryDy=0;" edge="1" parent="1" source="jaS_6ejKE6jILCxBxe4m-19" target="jaS_6ejKE6jILCxBxe4m-31">
          <mxGeometry width="50" height="50" relative="1" as="geometry">
            <mxPoint x="540" y="2040" as="sourcePoint" />
            <mxPoint x="590" y="1990" as="targetPoint" />
            <Array as="points">
              <mxPoint x="515" y="1850" />
              <mxPoint x="580" y="1850" />
            </Array>
          </mxGeometry>
        </mxCell>
        <mxCell id="jaS_6ejKE6jILCxBxe4m-36" value="" style="endArrow=classic;html=1;rounded=0;exitX=0.5;exitY=1;exitDx=0;exitDy=0;entryX=0.5;entryY=0;entryDx=0;entryDy=0;" edge="1" parent="1" source="jaS_6ejKE6jILCxBxe4m-21" target="jaS_6ejKE6jILCxBxe4m-31">
          <mxGeometry width="50" height="50" relative="1" as="geometry">
            <mxPoint x="540" y="2040" as="sourcePoint" />
            <mxPoint x="590" y="1990" as="targetPoint" />
            <Array as="points">
              <mxPoint x="640" y="1850" />
              <mxPoint x="580" y="1850" />
            </Array>
          </mxGeometry>
        </mxCell>
        <mxCell id="jaS_6ejKE6jILCxBxe4m-37" value="" style="endArrow=classic;html=1;rounded=0;exitX=0.5;exitY=1;exitDx=0;exitDy=0;entryX=1;entryY=0.5;entryDx=0;entryDy=0;" edge="1" parent="1" source="jaS_6ejKE6jILCxBxe4m-23" target="jaS_6ejKE6jILCxBxe4m-31">
          <mxGeometry width="50" height="50" relative="1" as="geometry">
            <mxPoint x="540" y="2040" as="sourcePoint" />
            <mxPoint x="590" y="1990" as="targetPoint" />
            <Array as="points">
              <mxPoint x="764" y="1912" />
            </Array>
          </mxGeometry>
        </mxCell>
        <mxCell id="jaS_6ejKE6jILCxBxe4m-38" value="" style="endArrow=classic;html=1;rounded=0;exitX=0.5;exitY=1;exitDx=0;exitDy=0;entryX=1;entryY=0.5;entryDx=0;entryDy=0;" edge="1" parent="1" source="jaS_6ejKE6jILCxBxe4m-25" target="jaS_6ejKE6jILCxBxe4m-31">
          <mxGeometry width="50" height="50" relative="1" as="geometry">
            <mxPoint x="540" y="2040" as="sourcePoint" />
            <mxPoint x="590" y="1990" as="targetPoint" />
            <Array as="points">
              <mxPoint x="890" y="1912" />
            </Array>
          </mxGeometry>
        </mxCell>
        <mxCell id="jaS_6ejKE6jILCxBxe4m-39" value="" style="endArrow=classic;html=1;rounded=0;exitX=0.5;exitY=1;exitDx=0;exitDy=0;entryX=1;entryY=0.5;entryDx=0;entryDy=0;" edge="1" parent="1" source="jaS_6ejKE6jILCxBxe4m-28" target="jaS_6ejKE6jILCxBxe4m-31">
          <mxGeometry width="50" height="50" relative="1" as="geometry">
            <mxPoint x="540" y="2040" as="sourcePoint" />
            <mxPoint x="590" y="1990" as="targetPoint" />
            <Array as="points">
              <mxPoint x="1022" y="1912" />
            </Array>
          </mxGeometry>
        </mxCell>
        <mxCell id="jaS_6ejKE6jILCxBxe4m-48" style="edgeStyle=orthogonalEdgeStyle;rounded=0;orthogonalLoop=1;jettySize=auto;html=1;exitX=0.5;exitY=1;exitDx=0;exitDy=0;entryX=0.5;entryY=0;entryDx=0;entryDy=0;" edge="1" parent="1" source="jaS_6ejKE6jILCxBxe4m-40" target="jaS_6ejKE6jILCxBxe4m-46">
          <mxGeometry relative="1" as="geometry" />
        </mxCell>
        <mxCell id="jaS_6ejKE6jILCxBxe4m-40" value="Ticket acknowledgement to be sent through mail (&lt;span style=&quot;background-color: rgb(255, 64, 255);&quot;&gt;D3&lt;/span&gt;)" style="rounded=0;whiteSpace=wrap;html=1;" vertex="1" parent="1">
          <mxGeometry x="451" y="2000" width="120" height="60" as="geometry" />
        </mxCell>
        <mxCell id="jaS_6ejKE6jILCxBxe4m-47" style="edgeStyle=orthogonalEdgeStyle;rounded=0;orthogonalLoop=1;jettySize=auto;html=1;exitX=0.5;exitY=1;exitDx=0;exitDy=0;entryX=0.5;entryY=0;entryDx=0;entryDy=0;" edge="1" parent="1" source="jaS_6ejKE6jILCxBxe4m-41" target="jaS_6ejKE6jILCxBxe4m-46">
          <mxGeometry relative="1" as="geometry" />
        </mxCell>
        <mxCell id="jaS_6ejKE6jILCxBxe4m-41" value="Ticket acknowledgement to be sent via SMS and WhatsApp (&lt;span style=&quot;background-color: rgb(255, 251, 0);&quot;&gt;I2&lt;/span&gt;)" style="rounded=0;whiteSpace=wrap;html=1;" vertex="1" parent="1">
          <mxGeometry x="594" y="2000" width="120" height="60" as="geometry" />
        </mxCell>
        <mxCell id="jaS_6ejKE6jILCxBxe4m-42" value="SMS &amp;amp; WhatsApp template to be shared along with template ID" style="shape=note;whiteSpace=wrap;html=1;backgroundOutline=1;darkOpacity=0.05;" vertex="1" parent="1">
          <mxGeometry x="758" y="1980" width="159.5" height="100" as="geometry" />
        </mxCell>
        <mxCell id="jaS_6ejKE6jILCxBxe4m-43" value="" style="endArrow=classic;html=1;rounded=0;exitX=0;exitY=0.5;exitDx=0;exitDy=0;exitPerimeter=0;entryX=1;entryY=0.5;entryDx=0;entryDy=0;" edge="1" parent="1" source="jaS_6ejKE6jILCxBxe4m-42" target="jaS_6ejKE6jILCxBxe4m-41">
          <mxGeometry width="50" height="50" relative="1" as="geometry">
            <mxPoint x="540" y="2120" as="sourcePoint" />
            <mxPoint x="590" y="2070" as="targetPoint" />
          </mxGeometry>
        </mxCell>
        <mxCell id="jaS_6ejKE6jILCxBxe4m-44" value="" style="endArrow=classic;html=1;rounded=0;exitX=0.5;exitY=1;exitDx=0;exitDy=0;entryX=0.5;entryY=0;entryDx=0;entryDy=0;" edge="1" parent="1" source="jaS_6ejKE6jILCxBxe4m-31" target="jaS_6ejKE6jILCxBxe4m-40">
          <mxGeometry width="50" height="50" relative="1" as="geometry">
            <mxPoint x="540" y="2120" as="sourcePoint" />
            <mxPoint x="590" y="2070" as="targetPoint" />
            <Array as="points">
              <mxPoint x="580" y="1960" />
              <mxPoint x="511" y="1960" />
            </Array>
          </mxGeometry>
        </mxCell>
        <mxCell id="jaS_6ejKE6jILCxBxe4m-46" value="Ticket allocation - round robin method" style="rounded=0;whiteSpace=wrap;html=1;" vertex="1" parent="1">
          <mxGeometry x="524.5" y="2120" width="120" height="60" as="geometry" />
        </mxCell>
        <mxCell id="jaS_6ejKE6jILCxBxe4m-50" style="edgeStyle=orthogonalEdgeStyle;rounded=0;orthogonalLoop=1;jettySize=auto;html=1;exitX=0;exitY=0.5;exitDx=0;exitDy=0;exitPerimeter=0;entryX=1;entryY=0.5;entryDx=0;entryDy=0;" edge="1" parent="1" source="jaS_6ejKE6jILCxBxe4m-49" target="jaS_6ejKE6jILCxBxe4m-46">
          <mxGeometry relative="1" as="geometry" />
        </mxCell>
        <mxCell id="jaS_6ejKE6jILCxBxe4m-49" value="Grievance team user details to be shared (&lt;span style=&quot;background-color: rgb(255, 64, 255);&quot;&gt;D4&lt;/span&gt;)" style="shape=note;whiteSpace=wrap;html=1;backgroundOutline=1;darkOpacity=0.05;" vertex="1" parent="1">
          <mxGeometry x="699" y="2115" width="138" height="70" as="geometry" />
        </mxCell>
      </root>
    </mxGraphModel>
  </diagram>
</mxfile>
